<svg width="28" height="24" viewBox="0 0 28 24" fill="none" xmlns="http://www.w3.org/2000/svg">
<path d="M14.2155 0C10.5375 0 10.0759 0.0142502 8.63128 0.0725002C7.18952 0.131 6.20539 0.33325 5.34429 0.63C4.45355 0.9365 3.69796 1.3465 2.9452 2.01375C2.19187 2.68075 1.72915 3.35025 1.38211 4.13925C1.04636 4.9025 0.81782 5.77475 0.752927 7.05175C0.688315 8.33175 0.671387 8.741 0.671387 12C0.671387 15.259 0.687751 15.6668 0.753209 16.9468C0.819514 18.2243 1.04777 19.0962 1.38239 19.8592C1.72859 20.6485 2.19131 21.318 2.94435 21.985C3.69684 22.6525 4.45242 23.0635 5.34259 23.37C6.20427 23.6667 7.18867 23.869 8.63015 23.9275C10.0747 23.9858 10.536 24 14.2138 24C17.8922 24 18.3523 23.9858 19.7969 23.9275C21.2387 23.869 22.2239 23.6667 23.0856 23.37C23.9761 23.0635 24.7305 22.6525 25.483 21.985C26.2363 21.318 26.6991 20.6485 27.0461 19.8595C27.379 19.0963 27.6076 18.224 27.6753 16.947C27.7402 15.667 27.7571 15.259 27.7571 12C27.7571 8.741 27.7402 8.332 27.6753 7.052C27.6076 5.7745 27.379 4.9025 27.0461 4.1395C26.6991 3.35025 26.2363 2.68075 25.483 2.01375C24.7297 1.34625 23.9763 0.93625 23.0848 0.63C22.2214 0.33325 21.2367 0.131 19.7949 0.0725002C18.3504 0.0142502 17.8905 0 14.2113 0H14.2155ZM13.0006 2.1625C13.3612 2.162 13.7635 2.1625 14.2155 2.1625C17.8315 2.1625 18.2601 2.174 19.688 2.2315C21.0085 2.285 21.7251 2.4805 22.2025 2.64475C22.8345 2.86225 23.2851 3.12225 23.7588 3.54225C24.2328 3.96225 24.5262 4.36225 24.7723 4.92225C24.9576 5.34475 25.1786 5.97975 25.2387 7.14975C25.3036 8.41475 25.3177 8.79475 25.3177 11.9972C25.3177 15.1997 25.3036 15.5797 25.2387 16.8447C25.1783 18.0147 24.9576 18.6497 24.7723 19.0723C24.5268 19.6322 24.2328 20.031 23.7588 20.4508C23.2848 20.8708 22.8348 21.1307 22.2025 21.3482C21.7257 21.5133 21.0085 21.7083 19.688 21.7617C18.2604 21.8193 17.8315 21.8318 14.2155 21.8318C10.5992 21.8318 10.1707 21.8193 8.74301 21.7617C7.42257 21.7077 6.70592 21.5122 6.22825 21.348C5.59624 21.1305 5.14481 20.8705 4.6708 20.4505C4.1968 20.0305 3.90337 19.6315 3.65734 19.0713C3.47197 18.6488 3.25105 18.0138 3.19095 16.8438C3.12606 15.5787 3.11308 15.1987 3.11308 11.9942C3.11308 8.78975 3.12606 8.41175 3.19095 7.14675C3.25133 5.97675 3.47197 5.34175 3.65734 4.91875C3.9028 4.35875 4.1968 3.95875 4.6708 3.53875C5.14481 3.11875 5.59624 2.85875 6.22825 2.64075C6.70564 2.47575 7.42257 2.28075 8.74301 2.227C9.99236 2.177 10.4765 2.162 13.0006 2.1595V2.1625ZM21.4447 4.155C20.5474 4.155 19.8195 4.79925 19.8195 5.5945C19.8195 6.3895 20.5474 7.0345 21.4447 7.0345C22.3419 7.0345 23.0698 6.3895 23.0698 5.5945C23.0698 4.7995 22.3419 4.155 21.4447 4.155ZM14.2155 5.8375C10.3747 5.8375 7.26062 8.59675 7.26062 12C7.26062 15.4032 10.3747 18.1612 14.2155 18.1612C18.0564 18.1612 21.1693 15.4032 21.1693 12C21.1693 8.59675 18.0564 5.8375 14.2155 5.8375ZM14.2155 8C16.7086 8 18.7298 9.79075 18.7298 12C18.7298 14.209 16.7086 16 14.2155 16C11.7222 16 9.70118 14.209 9.70118 12C9.70118 9.79075 11.7222 8 14.2155 8Z" fill="white"/>
</svg>
