<svg width="28" height="24" viewBox="0 0 28 24" fill="none" xmlns="http://www.w3.org/2000/svg">
<g clip-path="url(#clip0_377_274)">
<path d="M8.14256 10.79C9.7677 13.62 12.386 15.93 15.5798 17.38L18.0627 15.18C18.3674 14.91 18.8188 14.82 19.2138 14.94C20.4778 15.31 21.8434 15.51 23.2428 15.51C23.8636 15.51 24.3714 15.96 24.3714 16.51V20C24.3714 20.55 23.8636 21 23.2428 21C12.6456 21 4.05713 13.39 4.05713 4C4.05713 3.45 4.56499 3 5.1857 3H9.1357C9.75641 3 10.2643 3.45 10.2643 4C10.2643 5.25 10.49 6.45 10.9076 7.57C11.0317 7.92 10.9414 8.31 10.6254 8.59L8.14256 10.79Z" fill="white"/>
</g>
<defs>
<clipPath id="clip0_377_274">
<rect width="27.0857" height="24" fill="white" transform="translate(0.671387)"/>
</clipPath>
</defs>
</svg>
