<svg width="1440" height="260" viewBox="0 0 1440 260" fill="none" xmlns="http://www.w3.org/2000/svg">
<path fill-rule="evenodd" clip-rule="evenodd" d="M-2 115.556L19.645 125.185C41.29 134.815 85.7825 154.074 129.072 139.63C172.362 125.185 216.855 77.037 260.145 48.1481C304.637 19.2593 347.927 9.62963 391.217 24.0741C435.71 38.5185 479 77.037 522.29 86.6667C566.782 96.2963 610.072 77.037 653.362 57.7778C697.855 38.5185 741.145 19.2593 785.638 43.3333C828.928 67.4074 872.218 134.815 916.71 178.148C960 221.481 1003.29 240.741 1047.78 207.037C1091.07 173.333 1134.36 86.6667 1178.85 62.5926C1222.14 38.5185 1266.64 77.037 1309.93 77.037C1353.22 77.037 1397.71 38.5185 1419.35 19.2593L1441 0V260H1419.35C1397.71 260 1353.22 260 1309.93 260C1266.64 260 1222.14 260 1178.85 260C1134.36 260 1091.07 260 1047.78 260C1003.29 260 960 260 916.71 260C872.218 260 828.928 260 785.638 260C741.145 260 697.855 260 653.362 260C610.072 260 566.782 260 522.29 260C479 260 435.71 260 391.217 260C347.927 260 304.637 260 260.145 260C216.855 260 172.362 260 129.072 260C85.7825 260 41.29 260 19.645 260H-2V115.556Z" fill="#343434"/>
</svg>
