<svg width="1439" height="260" viewBox="0 0 1439 260" fill="none" xmlns="http://www.w3.org/2000/svg">
<path fill-rule="evenodd" clip-rule="evenodd" d="M0 115.556L21.6 125.185C43.2 134.815 87.6 154.074 130.8 139.63C174 125.185 218.4 77.037 261.6 48.1481C306 19.2593 349.2 9.62963 392.4 24.0741C436.8 38.5185 480 77.037 523.2 86.6667C567.6 96.2963 610.8 77.037 654 57.7778C698.4 38.5185 741.6 19.2593 786 43.3333C829.2 67.4074 872.4 134.815 916.8 178.148C960 221.481 1003.2 240.741 1047.6 207.037C1090.8 173.333 1134 86.6667 1178.4 62.5926C1221.6 38.5185 1266 77.037 1309.2 77.037C1352.4 77.037 1396.8 38.5185 1418.4 19.2593L1440 0V260H1418.4C1396.8 260 1352.4 260 1309.2 260C1266 260 1221.6 260 1178.4 260C1134 260 1090.8 260 1047.6 260C1003.2 260 960 260 916.8 260C872.4 260 829.2 260 786 260C741.6 260 698.4 260 654 260C610.8 260 567.6 260 523.2 260C480 260 436.8 260 392.4 260C349.2 260 306 260 261.6 260C218.4 260 174 260 130.8 260C87.6 260 43.2 260 21.6 260H0V115.556Z" fill="#F5F5F5"/>
</svg>
